<svg width="30" height="42" viewBox="0 0 30 42" fill="none" xmlns="http://www.w3.org/2000/svg">
<path d="M15 35.3692L26.1743 21.7711C26.6001 21.2707 27.1703 20.9938 27.7622 21.0001C28.3541 21.0064 28.9203 21.2953 29.3388 21.8046C29.7574 22.3139 29.9948 23.0029 29.9999 23.7232C30.0051 24.4435 29.7775 25.1374 29.3663 25.6555L16.596 41.1957C16.1727 41.7107 15.5986 42 15 42C14.4014 42 13.8273 41.7107 13.404 41.1957L0.63369 25.6555C0.22248 25.1374 -0.00505659 24.4435 8.6823e-05 23.7232C0.00523024 23.0029 0.242644 22.3139 0.661191 21.8046C1.07974 21.2953 1.64593 21.0064 2.23782 21.0001C2.82971 20.9938 3.39995 21.2707 3.8257 21.7711L15 35.3692Z" fill="white"/>
<path d="M15 14.3692L26.1743 0.771136C26.6001 0.270734 27.1703 -0.00615526 27.7622 0.000103749C28.3541 0.00636276 28.9203 0.29527 29.3388 0.804599C29.7574 1.31393 29.9948 2.00293 29.9999 2.7232C30.0051 3.44348 29.7775 4.13739 29.3663 4.6555L16.596 20.1957C16.1727 20.7107 15.5986 21 15 21C14.4014 21 13.8273 20.7107 13.404 20.1957L0.63369 4.6555C0.22248 4.13739 -0.00505659 3.44348 8.6823e-05 2.7232C0.00523024 2.00293 0.242644 1.31393 0.661191 0.804598C1.07974 0.295268 1.64593 0.00636159 2.23782 0.000102633C2.82971 -0.00615633 3.39995 0.270733 3.8257 0.771135L15 14.3692Z" fill="white"/>
</svg>
